<?xml version="1.0" encoding="UTF-8"?>
<svg width="22px" height="22px" viewBox="0 0 22 22" version="1.1" xmlns="http://www.w3.org/2000/svg" xmlns:xlink="http://www.w3.org/1999/xlink">
    <title>场景</title>
    <g id="iocn" stroke="none" stroke-width="1" fill="none" fill-rule="evenodd">
        <g id="画板备份-2" transform="translate(-84.000000, -36.000000)">
            <g id="场景" transform="translate(84.000000, 36.000000)">
                <rect id="矩形备份-36" x="0" y="0" width="22" height="22"></rect>
                <g id="编组" transform="translate(2.783334, 1.628118)">
                    <path d="M8.75849441,0.140266258 C8.43474006,-0.0467554192 8.03584818,-0.0467554192 7.71209383,0.140266258 L0.52320029,4.28398253 C0.199998421,4.4710042 0,4.81635987 0,5.18985153 L0,13.4778358 C0,13.8513274 0.199998421,14.1966831 0.52320029,14.3831531 L7.71209383,18.5268693 C8.03584818,18.713891 8.43474006,18.713891 8.75849441,18.5268693 L15.9468355,14.3831531 C16.2700373,14.1966831 16.4705882,13.8513274 16.4705882,13.4778358 L16.4705882,5.18985153 C16.4705882,4.81635987 16.2700373,4.4710042 15.9468355,4.28398253 L8.75849441,0.140266258 Z" id="Fill-5" fill="#FFFFFF"></path>
                    <path d="M8.70758921,0.90594987 C8.4127415,0.734199583 8.04946496,0.734199583 7.75461725,0.90594987 L1.20758921,4.71130799 C0.913244648,4.88305828 0.731103229,5.20021367 0.731103229,5.54320761 L0.731103229,13.1544305 C0.731103229,13.4974244 0.913244648,13.8145798 1.20758921,13.9858235 L7.75461725,17.7911816 C8.04946496,17.9629319 8.4127415,17.9629319 8.70758921,17.7911816 L15.2541141,13.9858235 C15.5484587,13.8145798 15.7311032,13.4974244 15.7311032,13.1544305 L15.7311032,5.54320761 C15.7311032,5.20021367 15.5484587,4.88305828 15.2541141,4.71130799 L8.70758921,0.90594987 Z" id="Fill-5" fill="#319B8A"></path>
                    <g id="编组-3" transform="translate(4.255977, 4.000000)">
                        <path d="M0,6.90900436 C0,5.61574124 0.864684104,4.57072057 1.95103308,3.84100787 C1.95389944,3.83850542 1.95772125,3.83600298 1.96154306,3.83350053 C1.96727577,3.82999711 1.9715753,3.82699418 1.97635256,3.82349076 C2.43831363,3.51669111 2.31362713,3.15734013 1.9147259,3.02370962 L1.72697958,2.96014754 C1.45515347,2.87556493 1.08825988,2.81500578 0.852263227,2.648343 C0.473904216,2.38058148 0.241729368,1.92413567 0.241729368,1.44566836 C0.241729368,0.894630162 0.551773558,0.379126673 1.02567777,0.139392527 C1.54735459,-0.123864595 2.11537083,0.00426054432 2.55440105,0.368616408 C2.86970023,0.629871574 3.50555357,0.957191265 4,0.957191265 C4.49444643,0.957191265 5.13125523,0.629871574 5.44607668,0.368616408 C5.88510689,0.00426054432 6.45264541,-0.123864595 6.9738445,0.139392527 C7.44918189,0.379126673 7.75827063,0.894630162 7.75827063,1.44566836 C7.75827063,1.92413567 7.52609578,2.38058148 7.14773677,2.648343 C6.91174012,2.81500578 6.54484653,2.87556493 6.2725427,2.96014754 L6.08384092,3.02320913 C5.68589514,3.15734013 5.56264182,3.51669111 6.017437,3.81898636 C6.0284247,3.82699418 6.03367968,3.82999711 6.03845694,3.83350053 C6.04227875,3.83600298 6.04610056,3.83850542 6.04992237,3.84100787 C7.1353159,4.57072057 8,5.61574124 8,6.90900436 C8,9.22276419 6.20900514,11 4,11 C1.79147259,11 0,9.22276419 0,6.90900436 Z" id="路径" fill="#FFFFFF"></path>
                        <path d="M4.23551893,5.25133532 C4.23551893,5.3148974 4.25223934,5.3644458 4.28615789,5.40048099 C4.32580915,5.44102059 4.37501493,5.48306165 4.45049564,5.48306165 C4.54986265,5.48306165 4.66881643,5.41449468 4.95497432,5.22280746 C5.02090051,5.17826395 5.06246268,5.10569307 5.0720172,5.01760704 C5.08348262,4.90549755 5.04287591,4.78538023 4.96500657,4.70430104 C4.83506509,4.56816808 4.6076675,4.56816808 4.47820375,4.70430104 C4.37883674,4.80790222 4.23551893,5.07216032 4.23551893,5.25133532 Z" id="Fill-1" fill="#30B49F"></path>
                        <path d="M2.9279828,5.01710655 C2.93753732,5.10519259 2.97909949,5.17826395 3.04502568,5.22280746 C3.33118357,5.41449468 3.4510928,5.48306165 3.54950436,5.48306165 C3.62450735,5.48306165 3.67466858,5.44102059 3.71384211,5.40048099 C3.8695808,5.23732164 3.63215096,4.81891298 3.5227517,4.70430104 C3.39281022,4.56816808 3.16493491,4.56816808 3.03499343,4.70430104 C2.95712409,4.78538023 2.91651738,4.90549755 2.9279828,5.01710655 Z" id="Fill-3" fill="#30B49F"></path>
                    </g>
                </g>
            </g>
        </g>
    </g>
</svg>